# Blender v2.76 (sub 0) OBJ File: ''
# www.blender.org
v -1.429697 0.176336 1.217202
v -1.429697 0.000000 1.217202
v -1.429697 0.176336 -1.262798
v -1.429697 0.000000 -1.262798
v 0.130303 0.176336 1.217202
v 0.130303 0.000000 1.217202
v 0.130303 0.176336 -1.262798
v 0.130303 0.000000 -1.262798
v -3.162358 2.456893 1.217202
v -1.738379 2.099563 1.217202
v -1.828616 1.888004 1.217202
v -3.072120 2.668453 1.217202
v -3.072120 2.668453 1.217202
v -1.738379 2.099563 1.217202
v -1.828616 1.888004 1.217202
v -3.162358 2.456893 1.217202
v -1.738379 2.099563 -1.268241
v -1.828616 1.888004 1.217202
v -1.738379 2.099563 1.217202
v -1.828616 1.888004 -1.268241
v -1.738379 2.099563 -1.268241
v -1.828616 1.888004 -1.268241
v -1.828616 1.888004 1.217202
v -3.162358 2.456893 -1.268241
v -3.162358 2.456893 1.217202
v -1.828616 1.888004 -1.268241
v -3.162358 2.456893 -1.268241
v -3.162358 2.456893 -1.268241
v -3.072120 2.668453 1.217202
v -3.162358 2.456893 1.217202
v -3.072120 2.668453 -1.268241
v -3.072120 2.668453 -1.268241
v -1.738379 2.099563 -1.268241
v -3.162358 2.456893 -1.268241
v -1.828616 1.888004 -1.268241
v -3.072120 2.668453 -1.268241
vt 1.729198 2.390472
vt 0.950557 2.042802
vt 0.999900 1.836963
vt 1.679856 2.596312
vt -0.693483 1.215421
vt 0.665574 0.991639
vt 0.665574 1.215421
vt -0.693483 0.991639
vt -0.665574 2.357237
vt 0.693483 3.768038
vt -0.665574 3.768038
vt 0.693483 2.357237
vt 0.693483 0.991639
vt -0.665574 1.215421
vt -0.665574 0.991639
vt 0.693483 1.215421
vt -0.950557 2.042802
vt -1.729198 2.390472
vt -0.999900 1.836963
vt -1.679856 2.596312
vn 0.000000 0.000000 -1.000000
vn -0.919800 0.392300 0.000000
vn 0.392300 0.919800 0.000000
vn 0.919800 -0.392300 0.000000
vn 0.000000 0.000000 1.000000
s off
f 9/1/1 10/2/1 11/3/1
f 10/2/1 9/1/1 12/4/1
f 17/5/2 18/6/2 19/7/2
f 18/6/2 17/5/2 20/8/2
f 23/9/3 24/10/3 25/11/3
f 24/10/3 23/9/3 26/12/3
f 28/13/4 29/14/4 30/15/4
f 29/14/4 28/13/4 31/16/4
f 33/17/5 34/18/5 35/19/5
f 34/18/5 33/17/5 36/20/5
v 0.130303 2.050000 -1.262798
v -1.429697 0.176336 -1.262798
v 0.130303 0.176336 -1.262798
v -1.429697 2.050000 -1.262798
v -1.429697 0.176336 -1.262798
v -1.429697 2.050000 -1.262798
v 0.130303 0.176336 -1.262798
v 0.130303 2.050000 -1.262798
v -1.429697 0.176336 -1.262798
v -1.429697 2.050000 1.217202
v -1.429697 0.176336 1.217202
v -1.429697 2.050000 -1.262798
v -1.429697 0.176336 1.217202
v -1.429697 2.050000 1.217202
v 0.130303 0.176336 1.217202
v -1.429697 0.176336 -1.262798
v -1.429697 0.176336 1.217202
v 0.130303 0.176336 -1.262798
v 0.130303 0.176336 1.217202
v 0.130303 2.050000 -1.262798
v 0.130303 0.176336 1.217202
v 0.130303 2.050000 1.217202
v 0.130303 0.176336 -1.262798
v 0.130303 2.050000 1.217202
v -1.429697 2.050000 1.217202
v 0.130303 0.176336 1.217202
v -1.429697 0.176336 1.217202
v 0.130303 2.050000 1.217202
vt 0.071250 1.994579
vt -0.781768 0.171569
vt 0.071250 0.171569
vt -0.781768 1.994579
vt 0.690506 0.171569
vt -0.665574 1.994579
vt -0.665574 0.171569
vt 0.690506 1.994579
vt 0.071250 -1.184295
vt -0.781768 1.228659
vt -0.781768 -1.184295
vt 0.071250 1.228659
vt -0.690506 1.994579
vt 0.665574 0.171569
vt 0.665574 1.994579
vt -0.690506 0.171569
vt 0.781768 1.994579
vt -0.071250 0.171569
vt 0.781768 0.171569
vt -0.071250 1.994579
vn 0.000000 0.000000 1.000000
vn 1.000000 0.000000 0.000000
vn 0.000000 1.000000 0.000000
vn -1.000000 0.000000 0.000000
vn 0.000000 0.000000 -1.000000
s off
f 37/21/6 38/22/6 39/23/6
f 38/22/6 37/21/6 40/24/6
f 45/25/7 46/26/7 47/27/7
f 46/26/7 45/25/7 48/28/7
f 51/29/8 52/30/8 53/31/8
f 52/30/8 51/29/8 54/32/8
f 56/33/9 57/34/9 58/35/9
f 57/34/9 56/33/9 59/36/9
f 61/37/10 62/38/10 63/39/10
f 62/38/10 61/37/10 64/40/10
v 0.307820 0.000000 -1.448820
v -1.622180 0.000000 1.391180
v -1.622180 0.000000 -1.448820
v 0.307820 0.000000 1.391180
v -1.622180 0.000000 -1.448820
v -1.622180 0.000000 1.391180
v 0.307820 0.000000 -1.448820
v 0.307820 0.000000 1.391180
v -1.622180 2.050000 -1.448820
v -1.622180 0.000000 1.391180
v -1.622180 2.050000 1.391180
v -1.622180 0.000000 -1.448820
v -1.622180 2.050000 -1.448820
v -1.622180 2.050000 1.391180
v -1.622180 2.050000 -1.448820
v 0.307820 0.000000 -1.448820
v -1.622180 0.000000 -1.448820
v 0.307820 2.050000 -1.448820
v 0.307820 2.050000 -1.448820
v 0.307820 0.000000 -1.448820
v 0.307820 2.050000 1.391180
v 0.307820 0.000000 1.391180
v 0.307820 2.050000 -1.448820
v 0.307820 2.050000 1.391180
v 0.307820 2.050000 1.391180
v -1.622180 0.000000 1.391180
v 0.307820 0.000000 1.391180
v -1.622180 2.050000 1.391180
v -1.739120 1.852265 -1.448820
v -1.622180 2.050000 1.391180
v -1.739120 1.852265 1.391180
v -1.622180 2.050000 -1.448820
v -1.739120 1.852265 -1.448820
v -1.739120 1.852265 1.391180
v -1.622180 2.050000 1.391180
v -1.429697 2.050000 1.217202
v -1.622180 2.050000 -1.448820
v 0.307820 2.050000 1.391180
v 0.130303 2.050000 1.217202
v 0.130303 2.050000 -1.262798
v -1.429697 2.050000 -1.262798
v 0.307820 2.050000 -1.448820
v 0.130303 2.050000 1.217202
v 0.130303 2.050000 -1.262798
v -1.429697 2.050000 1.217202
v -1.429697 2.050000 -1.262798
v -2.555616 1.524036 -1.448820
v -2.103394 1.578761 -1.448820
v -2.325902 1.521630 -1.448820
v -2.776881 1.585814 -1.448820
v -1.903253 1.691534 -1.448820
v -2.974614 1.702754 -1.448820
v -1.739120 1.852265 -1.448820
v -3.135345 1.866887 -1.448820
v -1.622180 2.050000 -1.448820
v -3.248119 2.067027 -1.448820
v -3.241066 2.740513 -1.448820
v -3.305248 2.289536 -1.448820
v -3.302843 2.519250 -1.448820
v -1.903253 1.691534 -1.448820
v -2.103394 1.578761 -1.448820
v -2.325902 1.521630 -1.448820
v -2.555616 1.524036 -1.448820
v -2.776881 1.585814 -1.448820
v -2.974614 1.702754 -1.448820
v -3.135345 1.866887 -1.448820
v -3.248119 2.067027 -1.448820
v -3.305248 2.289536 -1.448820
v -3.302843 2.519250 -1.448820
v -3.241066 2.740513 -1.448820
v -3.241066 2.740513 1.391180
v -3.072120 2.668453 1.217202
v -3.241066 2.740513 -1.448820
v -1.622180 2.050000 1.391180
v -1.738379 2.099563 1.217202
v -1.738379 2.099563 -1.268241
v -3.072120 2.668453 -1.268241
v -1.622180 2.050000 -1.448820
v -3.241066 2.740513 1.391180
v -1.738379 2.099563 -1.268241
v -1.738379 2.099563 1.217202
v -3.072120 2.668453 1.217202
v -3.072120 2.668453 -1.268241
v -2.103394 1.578761 1.391180
v -2.555616 1.524036 1.391180
v -2.325902 1.521630 1.391180
v -2.776881 1.585814 1.391180
v -1.903253 1.691534 1.391180
v -2.974614 1.702754 1.391180
v -1.739120 1.852265 1.391180
v -3.135345 1.866887 1.391180
v -3.248119 2.067027 1.391180
v -3.241066 2.740513 1.391180
v -3.305248 2.289536 1.391180
v -3.302843 2.519250 1.391180
v -3.302843 2.519250 1.391180
v -3.305248 2.289536 1.391180
v -3.248119 2.067027 1.391180
v -3.135345 1.866887 1.391180
v -2.974614 1.702754 1.391180
v -2.776881 1.585814 1.391180
v -2.555616 1.524036 1.391180
v -2.325902 1.521630 1.391180
v -2.103394 1.578761 1.391180
v -1.903253 1.691534 1.391180
v -1.903253 1.691534 1.391180
v -1.903253 1.691534 -1.448820
v -2.103394 1.578761 1.391180
v -2.103394 1.578761 -1.448820
v -2.325902 1.521630 1.391180
v -2.325902 1.521630 -1.448820
v -2.555616 1.524036 1.391180
v -2.555616 1.524036 -1.448820
v -2.776881 1.585814 1.391180
v -2.776881 1.585814 -1.448820
v -2.974614 1.702754 1.391180
v -2.974614 1.702754 -1.448820
v -3.135345 1.866887 -1.448820
v -3.135345 1.866887 1.391180
v -3.248119 2.067027 -1.448820
v -3.248119 2.067027 1.391180
v -3.305248 2.289536 -1.448820
v -3.305248 2.289536 1.391180
v -3.302843 2.519250 -1.448820
v -3.302843 2.519250 1.391180
v -3.241066 2.740513 -1.448820
v -3.241066 2.740513 1.391180
vt -0.168318 1.409652
vt 0.887019 -1.353570
vt 0.887019 1.409652
vt -0.168318 -1.353570
vt -0.792224 1.994579
vt 0.760706 0.000000
vt 0.760706 1.994579
vt -0.792224 0.000000
vt 0.887019 1.994579
vt -0.168318 0.000000
vt 0.887019 0.000000
vt -0.168318 1.994579
vt 0.792224 0.000000
vt -0.760706 1.994579
vt -0.760706 0.000000
vt 0.792224 1.994579
vt 0.168318 1.994579
vt -0.887019 0.000000
vt 0.168318 0.000000
vt -0.887019 1.994579
vt -0.887019 -1.353570
vt -0.781768 -1.184295
vt -0.887019 1.409652
vt 0.168318 -1.353570
vt 0.071250 -1.184295
vt 0.071250 1.228659
vt -0.781768 1.228659
vt 0.168318 1.409652
vt 1.397428 1.482834
vt 1.150150 1.536080
vt 1.271819 1.480494
vt 1.518416 1.542942
vt 1.040712 1.645804
vt 1.626539 1.656721
vt 0.950962 1.802190
vt 1.714428 1.816417
vt 1.776093 2.011147
vt 1.772236 2.666425
vt 1.807332 2.227640
vt 1.806017 2.451143
vt -0.760706 3.946745
vt -0.665574 3.768038
vt 0.792224 3.946745
vt -0.760706 2.234325
vt -0.665574 2.357237
vt 0.693483 2.357237
vt 0.693483 3.768038
vt 0.792224 2.234325
vt -1.150150 1.536080
vt -1.397428 1.482834
vt -1.271819 1.480494
vt -1.518416 1.542942
vt -1.040712 1.645804
vt -1.626539 1.656721
vt -0.950962 1.802190
vt -1.714428 1.816417
vt -1.776093 2.011147
vt -1.772236 2.666425
vt -1.807332 2.227640
vt -1.806017 2.451143
vt 1.385727 -2.763222
vt 1.511703 0.000000
vt 1.385727 0.000000
vt 1.511703 -2.763222
vt 1.259752 -0.000000
vt 1.259752 -2.763222
vt 1.133777 -0.000000
vt 1.133777 -2.763222
vt 1.007802 0.000000
vt 1.007802 -2.763222
vt 0.881827 0.000000
vt 0.881827 -2.763222
vt 0.755851 0.000000
vt 0.755851 -2.763222
vt 0.629876 0.000000
vt 0.629876 -2.763222
vt 0.503901 -2.763222
vt 0.503901 0.000000
vt 0.377926 -2.763222
vt 0.377926 0.000000
vt 0.251950 -2.763222
vt 0.251950 0.000000
vt 0.125975 -2.763222
vt 0.125975 -0.000000
vt 0.000000 -2.763222
vt 0.000000 -0.000000
vn 0.000000 -1.000000 0.000000
vn -1.000000 0.000000 0.000000
vn 0.000000 0.000000 -1.000000
vn 1.000000 0.000000 0.000000
vn 0.000000 0.000000 1.000000
vn 0.000000 1.000000 0.000000
vn 0.392300 0.919800 0.000000
vn 0.786900 -0.617000 0.000000
vn 0.860700 -0.509000 0.000000
vn 0.600400 -0.799700 0.000000
vn 0.373000 -0.927800 0.000000
vn 0.120100 -0.992700 0.000000
vn -0.140900 -0.990000 0.000000
vn -0.392300 -0.919800 0.000000
vn -0.617000 -0.786900 0.000000
vn -0.799700 -0.600400 0.000000
vn -0.927800 -0.373000 0.000000
vn -0.992700 -0.120100 0.000000
vn -0.990000 0.140900 0.000000
vn -0.963100 0.268900 0.000000
s off
f 65/41/11 66/42/11 67/43/11
f 66/42/11 65/41/11 68/44/11
f 73/45/12 74/46/12 75/47/12
f 74/46/12 73/45/12 76/48/12
f 79/49/13 80/50/13 81/51/13
f 80/50/13 79/49/13 82/52/13
f 84/53/14 85/54/14 86/55/14
f 85/54/14 84/53/14 87/56/14
f 89/57/15 90/58/15 91/59/15
f 90/58/15 89/57/15 92/60/15
f 99/61/16 100/62/16 101/63/16
f 100/62/16 99/61/16 102/64/16
f 100/62/16 102/64/16 103/65/16
f 103/65/16 102/64/16 104/66/16
f 101/63/16 105/67/16 106/68/16
f 105/67/16 101/63/16 100/62/16
f 106/68/16 105/67/16 104/66/16
f 106/68/16 104/66/16 102/64/16
f 111/69/13 112/70/13 113/71/13
f 112/70/13 111/69/13 114/72/13
f 112/70/13 114/72/13 115/73/13
f 115/73/13 114/72/13 116/74/13
f 115/73/13 116/74/13 117/75/13
f 117/75/13 116/74/13 118/76/13
f 117/75/13 118/76/13 119/49/13
f 119/49/13 118/76/13 120/77/13
f 119/49/13 120/77/13 121/78/13
f 121/78/13 120/77/13 122/79/13
f 121/78/13 122/79/13 123/80/13
f 135/81/17 136/82/17 137/83/17
f 136/82/17 135/81/17 138/84/17
f 136/82/17 138/84/17 139/85/17
f 139/85/17 138/84/17 140/86/17
f 137/83/17 141/87/17 142/88/17
f 141/87/17 137/83/17 136/82/17
f 142/88/17 141/87/17 140/86/17
f 142/88/17 140/86/17 138/84/17
f 148/89/15 149/90/15 150/91/15
f 149/90/15 148/89/15 151/92/15
f 151/92/15 148/89/15 152/93/15
f 151/92/15 152/93/15 153/94/15
f 153/94/15 152/93/15 154/95/15
f 153/94/15 154/95/15 155/96/15
f 155/96/15 154/95/15 92/60/15
f 155/96/15 92/60/15 156/97/15
f 156/97/15 92/60/15 157/98/15
f 156/97/15 157/98/15 158/99/15
f 158/99/15 157/98/15 159/100/15
s 1
f 93/101/18 94/102/19 95/103/18
f 94/102/19 93/101/18 96/104/19
f 93/101/18 170/105/20 171/106/20
f 170/105/20 93/101/18 95/103/18
f 171/106/20 172/107/21 173/108/21
f 172/107/21 171/106/20 170/105/20
f 173/108/21 174/109/22 175/110/22
f 174/109/22 173/108/21 172/107/21
f 175/110/22 176/111/23 177/112/23
f 176/111/23 175/110/22 174/109/22
f 177/112/23 178/113/24 179/114/24
f 178/113/24 177/112/23 176/111/23
f 179/114/24 180/115/25 181/116/25
f 180/115/25 179/114/24 178/113/24
f 182/117/26 180/115/25 183/118/26
f 180/115/25 182/117/26 181/116/25
f 184/119/27 183/118/26 185/120/27
f 183/118/26 184/119/27 182/117/26
f 186/121/28 185/120/27 187/122/28
f 185/120/27 186/121/28 184/119/27
f 188/123/29 187/122/28 189/124/29
f 187/122/28 188/123/29 186/121/28
f 190/125/30 189/124/29 191/126/30
f 189/124/29 190/125/30 188/123/29
