# Blender v2.76 (sub 0) OBJ File: ''
# www.blender.org
v 10.323425 0.000000 4.321655
v 7.998997 0.000000 -3.838352
v 7.998997 0.000000 4.321655
v 10.323425 0.000000 -3.838352
v 10.323425 0.000000 -3.838352
v 10.323425 0.000000 4.321655
v 7.998997 0.000000 -3.838352
v 7.998997 0.000000 4.321655
v 7.998997 0.000000 -3.838352
v 10.323425 0.000000 -3.838352
v 7.998997 0.000000 4.321655
v 10.323425 0.000000 4.321655
v 10.323425 13.029999 -3.838352
v 7.998997 0.000000 -3.838352
v 10.323425 0.000000 -3.838352
v 7.998997 13.029999 -3.838352
v 7.998997 13.029999 -3.838352
v 10.323425 13.029999 -3.838352
v 7.998997 0.000000 -3.838352
v 10.323425 0.000000 -3.838352
v 10.323425 13.029999 -3.838352
v 7.998997 13.029999 -3.838352
v 7.998997 13.029999 -3.838352
v 7.998997 0.000000 4.321655
v 7.998997 13.029999 4.321655
v 7.998997 0.000000 -3.838352
v 7.998997 0.000000 -3.838352
v 7.998997 13.029999 -3.838352
v 7.998997 0.000000 4.321655
v 7.998997 13.029999 4.321655
v 7.998997 13.029999 4.321655
v 10.323425 0.000000 4.321655
v 7.998997 13.029999 4.321655
v 7.998997 0.000000 4.321655
v 10.323425 13.029999 4.321655
v 10.323425 13.029999 4.321655
v 10.323425 0.000000 4.321655
v 7.998997 13.029999 4.321655
v 7.998997 0.000000 4.321655
v 10.323425 13.029999 4.321655
v 10.323425 13.029999 -3.838352
v 10.323425 0.000000 4.321655
v 10.323425 13.029999 4.321655
v 10.323425 0.000000 -3.838352
v 10.323425 0.000000 -3.838352
v 10.323425 13.029999 -3.838352
v 10.323425 0.000000 4.321655
v 10.323425 13.029999 4.321655
v 10.323425 13.029999 -3.838352
v 7.998997 13.029999 4.321655
v 7.998997 13.029999 -3.838352
v 10.323425 13.029999 4.321655
v 10.323425 13.029999 4.321655
v 10.323425 13.029999 -3.838352
v 7.998997 13.029999 4.321655
v 7.998997 13.029999 -3.838352
vt 44.592430 48.452457
vt 42.645329 58.491829
vt 42.645329 48.452457
vt 44.592430 58.491829
vt 44.592430 16.031000
vt 42.645329 0.000000
vt 44.592430 0.000000
vt 42.645329 16.031000
vt -39.824219 0.000000
vt -39.824219 16.031000
vt -32.988911 0.000000
vt -32.988911 16.031000
vt -44.592430 58.491829
vt -42.645329 48.452457
vt -42.645329 58.491829
vt -44.592430 48.452457
vt 3.873593 2.843191
vt 3.873593 2.355194
vt 3.704456 2.843191
vt 3.704456 2.355194
vt 3.704456 0.779240
vt 3.873593 0.779240
vt 3.704456 0.000000
vt 3.873593 0.000000
vt -3.459396 0.779240
vt -2.865635 0.000000
vt -2.865635 0.779240
vt -3.459396 0.000000
vt -3.873593 2.355194
vt -3.873593 2.843191
vt -3.704456 2.355194
vt -3.704456 2.843191
vn -0.000000 1.000000 0.000000
vn 0.000000 0.000000 1.000000
vn 1.000000 0.000000 0.000000
vn 0.000000 0.000000 -1.000000
vn -1.000000 0.000000 0.000000
vn 0.000000 -1.000000 0.000000
s off
f 1/1/1 2/2/1 3/3/1
f 2/2/1 1/1/1 4/4/1
f 13/5/2 14/6/2 15/7/2
f 14/6/2 13/5/2 16/8/2
f 27/9/3 28/10/3 29/11/3
f 30/12/3 29/11/3 28/10/3
f 36/5/4 37/7/4 38/8/4
f 39/6/4 38/8/4 37/7/4
f 41/10/5 42/11/5 43/12/5
f 42/11/5 41/10/5 44/9/5
f 49/13/6 50/14/6 51/15/6
f 50/14/6 49/13/6 52/16/6
f 5/17/6 6/18/6 7/19/6
f 8/20/6 7/19/6 6/18/6
f 17/21/4 18/22/4 19/23/4
f 20/24/4 19/23/4 18/22/4
f 23/25/5 24/26/5 25/27/5
f 24/26/5 23/25/5 26/28/5
f 32/24/2 33/21/2 34/23/2
f 33/21/2 32/24/2 35/22/2
f 45/28/3 46/25/3 47/26/3
f 48/27/3 47/26/3 46/25/3
f 53/29/1 54/30/1 55/31/1
f 56/32/1 55/31/1 54/30/1
