# Blender v2.76 (sub 0) OBJ File: ''
# www.blender.org
mtllib roof.mtl
o instance_0.001_ID4
v 52.423218 21.097984 3.614853
v 2.313206 21.097984 -96.315155
v 2.313206 21.097984 3.614853
v 52.423218 21.097984 -96.315155
v 52.423218 21.097984 -96.315155
v 52.423218 21.097984 3.614853
v 2.313206 21.097984 -96.315155
v 2.313206 21.097984 3.614853
v 52.423218 21.097984 3.614853
v 2.313206 19.550001 3.614853
v 52.423218 19.550001 3.614853
v 2.313206 21.097984 3.614853
v 2.313206 21.097984 3.614853
v 52.423218 21.097984 3.614853
v 2.313206 19.550001 3.614853
v 52.423218 19.550001 3.614853
v 52.423218 19.550001 -96.315155
v 52.423218 21.097984 3.614853
v 52.423218 19.550001 3.614853
v 52.423218 21.097984 -96.315155
v 52.423218 21.097984 -96.315155
v 52.423218 19.550001 -96.315155
v 52.423218 21.097984 3.614853
v 52.423218 19.550001 3.614853
v 2.313206 21.097984 -96.315155
v 52.423218 19.550001 -96.315155
v 2.313206 19.550001 -96.315155
v 52.423218 21.097984 -96.315155
v 52.423218 21.097984 -96.315155
v 2.313206 21.097984 -96.315155
v 52.423218 19.550001 -96.315155
v 2.313206 19.550001 -96.315155
v 2.313206 21.097984 -96.315155
v 2.313206 19.550001 3.614853
v 2.313206 21.097984 3.614853
v 2.313206 19.550001 -96.315155
v 2.313206 19.550001 -96.315155
v 2.313206 21.097984 -96.315155
v 2.313206 19.550001 3.614853
v 2.313206 21.097984 3.614853
v 52.423218 19.550001 -96.315155
v 2.313206 19.550001 3.614853
v 2.313206 19.550001 -96.315155
v 52.423218 19.550001 3.614853
v 52.423218 19.550001 3.614853
v 52.423218 19.550001 -96.315155
v 2.313206 19.550001 3.614853
v 2.313206 19.550001 -96.315155
vt 1.252750 -1.722091
vt 0.000000 3.042266
vt 0.000000 -1.722091
vt 1.252750 3.042266
vt 1.252750 0.073803
vt 0.000000 0.000000
vt 1.252750 0.000000
vt 0.000000 0.073803
vt 1.595250 0.000000
vt -0.903000 0.073803
vt -0.903000 0.000000
vt 1.595250 0.073803
vt -1.252750 0.000000
vt -1.252750 0.073803
vt -1.595250 0.073803
vt 0.903000 0.000000
vt 0.903000 0.073803
vt -1.595250 0.000000
vt -1.252750 3.042266
vt -1.252750 -1.722091
vn 0.000000 1.000000 0.000000
vn 0.000000 -1.000000 0.000000
vn 0.000000 0.000000 1.000000
vn 0.000000 0.000000 -1.000000
vn 1.000000 0.000000 0.000000
vn -1.000000 0.000000 0.000000
usemtl material_4.001
s off
f 1/1/1 2/2/1 3/3/1
f 2/2/1 1/1/1 4/4/1
f 5/4/2 6/1/2 7/2/2
f 8/3/2 7/2/2 6/1/2
f 9/5/3 10/6/3 11/7/3
f 10/6/3 9/5/3 12/8/3
f 13/8/4 14/5/4 15/6/4
f 16/7/4 15/6/4 14/5/4
f 17/9/5 18/10/5 19/11/5
f 18/10/5 17/9/5 20/12/5
f 21/12/6 22/9/6 23/10/6
f 24/11/6 23/10/6 22/9/6
f 25/8/4 26/13/4 27/6/4
f 26/13/4 25/8/4 28/14/4
f 29/14/3 30/8/3 31/13/3
f 32/6/3 31/13/3 30/8/3
f 33/15/6 34/16/6 35/17/6
f 34/16/6 33/15/6 36/18/6
f 37/18/5 38/15/5 39/16/5
f 40/17/5 39/16/5 38/15/5
f 41/19/2 42/3/2 43/2/2
f 42/3/2 41/19/2 44/20/2
f 45/20/1 46/19/1 47/3/1
f 48/2/1 47/3/1 46/19/1
